<?xml version="1.0" encoding="utf-8"?>
<!-- Generator: Adobe Illustrator 17.0.2, SVG Export Plug-In . SVG Version: 6.00 Build 0)  -->
<!DOCTYPE svg PUBLIC "-//W3C//DTD SVG 1.1//EN" "http://www.w3.org/Graphics/SVG/1.1/DTD/svg11.dtd">
<svg version="1.1" id="Capa_1" xmlns="http://www.w3.org/2000/svg" xmlns:xlink="http://www.w3.org/1999/xlink" x="0px" y="0px"
	 width="97.19px" height="54.88px" viewBox="23.965 22.56 97.19 54.88" enable-background="new 23.965 22.56 97.19 54.88"
	 xml:space="preserve">
<g id="Capa_25">
	<g>
		<g>
			<g>
				<path fill="#FFFFFF" d="M108.568,28.883c0-1.606,0.612-3.213,1.838-4.439c2.451-2.453,6.448-2.475,8.9-0.022
					c2.451,2.451,2.473,6.404,0.022,8.854l-0.044,0.044c-2.452,2.453-6.427,2.453-8.878,0
					C109.182,32.097,108.568,30.488,108.568,28.883z"/>
				<path fill="#FFFFFF" d="M80.348,57.103c0-1.603,0.607-3.2,1.825-4.427l0.094-0.094c2.444-2.459,6.418-2.473,8.878-0.027
					c2.459,2.439,2.472,6.417,0.028,8.877l-0.093,0.097c-2.444,2.458-6.418,2.47-8.878,0.027
					C80.967,60.33,80.348,58.715,80.348,57.103z M94.458,42.992c0-1.604,0.612-3.212,1.838-4.438l0.093-0.094
					c2.452-2.451,6.427-2.451,8.878,0s2.451,6.429,0,8.877l-0.093,0.096c-2.452,2.451-6.426,2.451-8.879,0
					C95.071,46.207,94.458,44.599,94.458,42.992z"/>
				<path fill="#FFFFFF" d="M66.277,71.129c0-1.604,0.606-3.209,1.826-4.428c1.812-1.813,4.444-2.299,6.683-1.438
					c0.818,0.303,1.583,0.782,2.241,1.438c2.45,2.449,2.472,6.402,0.022,8.854l-0.045,0.047c-2.452,2.451-6.427,2.451-8.88,0
					C66.894,74.371,66.277,72.75,66.277,71.129z"/>
				<path fill="#FFFFFF" d="M38.025,42.9c0-1.607,0.612-3.215,1.838-4.439c2.451-2.453,6.428-2.453,8.879,0l0.092,0.095
					c2.453,2.448,2.453,6.428,0,8.877c-2.45,2.45-6.426,2.45-8.877,0l-0.094-0.095C38.638,46.113,38.025,44.504,38.025,42.9z
					 M52.135,57.008c0-1.604,0.611-3.213,1.837-4.439c2.452-2.45,6.428-2.45,8.879,0l0.095,0.093c2.449,2.449,2.449,6.428,0,8.877
					c-2.451,2.451-6.428,2.451-8.881,0l-0.093-0.093C52.748,60.223,52.135,58.617,52.135,57.008z"/>
				<path fill="#FFFFFF" d="M23.965,28.838c0-1.604,0.611-3.213,1.839-4.438c2.45-2.453,6.425-2.453,8.877,0
					c2.452,2.451,2.475,6.444,0.022,8.895c-2.453,2.455-6.406,2.478-8.855,0.022l-0.044-0.044
					C24.578,32.051,23.965,30.444,23.965,28.838z"/>
			</g>
		</g>
	</g>
</g>
</svg>
